<svg width="32" height="32" viewBox="0 0 32 32" fill="none" xmlns="http://www.w3.org/2000/svg">
  <!-- Background circle -->
  <rect width="32" height="32" rx="8" fill="#1f1f1f"/>

  <!-- Palette icon with warm accent color -->
  <path d="M16 6C10.48 6 6 10.48 6 16C6 21.52 10.48 26 16 26C16.83 26 17.5 25.33 17.5 24.5C17.5 24.11 17.35 23.76 17.11 23.49C16.88 23.23 16.74 22.88 16.74 22.5C16.74 21.67 17.41 21 18.24 21H20C23.31 21 26 18.31 26 15C26 9.92 21.52 6 16 6ZM10.5 16C9.67 16 9 15.33 9 14.5C9 13.67 9.67 13 10.5 13C11.33 13 12 13.67 12 14.5C12 15.33 11.33 16 10.5 16ZM13.5 11C12.67 11 12 10.33 12 9.5C12 8.67 12.67 8 13.5 8C14.33 8 15 8.67 15 9.5C15 10.33 14.33 11 13.5 11ZM18.5 11C17.67 11 17 10.33 17 9.5C17 8.67 17.67 8 18.5 8C19.33 8 20 8.67 20 9.5C20 10.33 19.33 11 18.5 11ZM21.5 16C20.67 16 20 15.33 20 14.5C20 13.67 20.67 13 21.5 13C22.33 13 23 13.67 23 14.5C23 15.33 22.33 16 21.5 16Z" fill="#e9d5c4"/>
</svg>
